# AST/ASF file generated using VICON BodyLanguage
# -----------------------------------------------
:version 1.10
:name VICON
:units
  mass 1.0
  length 0.45
  angle deg
:documentation
   .ast/.asf automatically generated from VICON data using
   VICON BodyBuilder and BodyLanguage model FoxedUp or BRILLIANT.MOD
:root
   order TX TY TZ RX RY RZ
   axis XYZ
   position 0 0 0  
   orientation 0 0 0 
:bonedata
  begin
     id 1 
     name lhipjoint
     direction 0.602128 -0.715006 0.355257 
     length 2.21237 
     axis 0 0 0  XYZ
  end
  begin
     id 2 
     name lfemur
     direction 0.34202 -0.939693 0  
     length 6.71649  
     axis 0 0 20  XYZ
    dof rx ry rz
    limits (-160.0 20.0)
           (-70.0 70.0)
           (-60.0 70.0)
  end
  begin
     id 3 
     name ltibia
     direction 0.34202 -0.939693 0   
     length 6.97123   
     axis 0 0 20   XYZ
    dof rx
    limits (-10.0 170.0)
  end
  begin
     id 4 
     name lfoot
     direction 0.0655697 -0.180151 0.981451   
     length 1.80924   
     axis -90 7.62852e-016 20   XYZ
    dof rx rz
    limits (-45.0 90.0)
           (-70.0 20.0)
  end
  begin
     id 5 
     name ltoes
     direction 1.53545e-011 -4.21827e-011 1   
     length 0.916331   
     axis -90 7.62852e-016 20   XYZ
    dof rx
    limits (-90.0 20.0)
  end
  begin
     id 6 
     name rhipjoint
     direction -0.625414 -0.698792 0.347201   
     length 2.2637  
     axis 0 0 0  XYZ 
  end
  begin
     id 7 
     name rfemur
     direction -0.34202 -0.939693 0   
     length 7.07595   
     axis 0 0 -20   XYZ
    dof rx ry rz
    limits (-160.0 20.0)
           (-70.0 70.0)
           (-70.0 60.0)
  end
  begin
     id 8 
     name rtibia
     direction -0.34202 -0.939693 0   
     length 7.22924   
     axis 0 0 -20   XYZ
    dof rx
    limits (-10.0 170.0)
 end
 begin
     id 9 
     name rfoot
     direction -0.0766747 -0.210662 0.974547   
     length 1.98482  
     axis -90 -7.62852e-016 -20   XYZ
    dof rx rz
    limits (-45.0 90.0)
           (-20.0 70.0)
  end
  begin
     id 10 
     name rtoes
     direction -1.53532e-011 -4.21867e-011 1   
     length 0.999842   
     axis -90 -7.62852e-016 -20   XYZ
    dof rx
    limits (-90.0 20.0)
  end
  begin
     id 11 
     name lowerback
     direction -0.0224668 0.997354 -0.0691422   
     length 2.09945   
     axis 0 0 0   XYZ
    dof rx ry rz
    limits (-20.0 45.0)
           (-30.0 30.0)
           (-30.0 30.0)
  end
  begin
     id 12 
     name upperback
     direction 0.0134698 0.998451 -0.0539888   
     length 2.09758   
     axis 0 0 0   XYZ
    dof rx ry rz
    limits (-20.0 45.0)
           (-30.0 30.0)
           (-30.0 30.0)
  end
  begin
     id 13 
     name thorax
     direction 0.0241905 0.99948 -0.0213333   
     length 2.10428   
     axis 0 0 0   XYZ
    dof rx ry rz
    limits (-20.0 45.0)
           (-30.0 30.0)
           (-30.0 30.0)
  end
  begin
     id 14 
     name lowerneck
     direction -0.00866847 0.995978 0.0891737   
     length 1.3959   
     axis 0 0 0   XYZ
    dof rx ry rz
    limits (-20.0 45.0)
           (-30.0 30.0)
           (-30.0 30.0)
  end
  begin
     id 15 
     name upperneck
     direction 0.0680679 0.992203 0.104404   
     length 1.39452   
     axis 0 0 0   XYZ
    dof rx ry rz
    limits (-20.0 45.0)
           (-30.0 30.0)
           (-30.0 30.0)
  end
  begin
     id 16
     name head
     direction 0.0242216 0.999358 0.0264054  
     length 1.40433  
     axis 0 0 0   XYZ
    dof rx ry rz
    limits (-20.0 45.0)
           (-30.0 30.0)
           (-30.0 30.0)
  end
  begin
     id 17 
     name lclavicle
     direction 0.929368 0.362991 -0.0671771  
     length 3.04887  
     axis 0 0 0   XYZ
    dof ry rz
    limits (-20.0 10.0)
           (0.0 20.0)
  end
  begin
     id 18 
     name lhumerus
     direction 1 -4.48967e-011 -7.13741e-028   
     length 4.77195   
     axis -180 -30 -90   XYZ
    dof rx ry rz
    limits (-60.0 90.0)
           (-90.0 90.0)
           (-90.0 90.0)
  end
  begin
     id 19
     name lradius
     direction 1 -4.48977e-011 3.60404e-027   
     length 2.98444   
     axis -180 -30 -90   XYZ
    dof rx
    limits (-10.0 170.0)
  end
  begin
     id 20
     name lwrist
     direction 1 -4.48997e-011 7.54877e-027   
     length 1.49222   
     axis -7.18178e-015 90 90   XYZ
    dof ry
    limits (-180.0 0.0)
 end
  begin
     id 21 
     name lhand
     direction 1 -4.489e-011 1.51105e-026   
     length 0.992285   
     axis -9.63605e-015 90 90   XYZ
    dof rx rz
    limits (-90.0 90.0)
           (-45.0 45.0)
  end
  begin
     id 22 
     name lfingers
     direction 1 -4.48998e-011 3.01948e-026   
     length 0.800006   
     axis -1.92718e-014 90 90   XYZ
    dof rx
    limits (0.0 90.0)
  end
  begin
     id 23
     name lthumb
     direction 0.707107 -6.34881e-011 0.707107   
     length 1.14865   
     axis -90 45 -3.53137e-014   XYZ
    dof rx rz
    limits (-45.0 45.0)
           (-45.0 45.0)
  end
  begin
     id 24 
     name rclavicle
     direction -0.945672 0.324529 0.0196374   
     length 3.4236  
     axis 0 0 0   XYZ 
    dof ry rz
    limits (-10.0 20.0)
           (-20.0 0.0)
  end
  begin
     id 25 
     name rhumerus
     direction -1 -4.4896e-011 1.02757e-029  
     length 4.62052   
     axis -180 30 90   XYZ
    dof rx ry rz
    limits (-90.0 60.0)
           (-90.0 90.0)
           (-90.0 90.0)
  end
  begin
     id 26 
     name rradius
     direction -1 -4.48982e-011 3.85962e-027   
     length 2.95332   
     axis -180 30 90   XYZ
    dof rx
    limits (-10.0 170.0)
  end
  begin
     id 27 
     name rwrist
     direction -1 -4.48961e-011 7.55118e-027   
     length 1.47666   
     axis -7.18178e-015 -90 -90   XYZ
    dof ry
    limits (-180.0 0.0)
  end
  begin
     id 28
     name rhand
     direction -1 -4.48984e-011 1.50994e-026   
     length 0.990956   
     axis -9.63605e-015 -90 -90   XYZ
    dof rx rz
    limits (-90.0 90.0)
           (-45.0 45.0)
  end
  begin
     id 29
     name rfingers
     direction -1 -4.4892e-011 3.02158e-026   
     length 0.798934   
     axis -1.92718e-014 -90 -90   XYZ
    dof rx
    limits (0.0 90.0)
  end
  begin
     id 30
     name rthumb
     direction -0.707107 -6.34916e-011 0.707107   
     length 1.14711   
     axis -90 -45 3.53137e-014   XYZ
    dof rx rz
    limits (-45.0 45.0)
           (-45.0 45.0)
  end
:hierarchy
  begin
    root lhipjoint rhipjoint lowerback
    lhipjoint lfemur
    lfemur ltibia
    ltibia lfoot
    lfoot ltoes
    rhipjoint rfemur
    rfemur rtibia
    rtibia rfoot
    rfoot rtoes
    lowerback upperback
    upperback thorax
    thorax lowerneck lclavicle rclavicle
    lowerneck upperneck
    upperneck head
    lclavicle lhumerus
    lhumerus lradius
    lradius lwrist
    lwrist lhand lthumb
    lhand lfingers
    rclavicle rhumerus
    rhumerus rradius
    rradius rwrist
    rwrist rhand rthumb
    rhand rfingers
  end

#!OML:ASF H:\ManfredObstacles\Project 1\Capture day 1\Session 1\Male.ASF
:FULLY-SPECIFIED
:DEGREES
113
root -0.640612 15.8098 49.5042 -169.532 -6.25027 -179.249
lowerback -8.59498 -2.95777 -3.85672
upperback 0.316689 -3.62875 1.11176
thorax 5.46746 -1.92411 2.84028
lowerneck 2.8762 -3.38368 -4.59101
upperneck -10.4855 -3.24534 11.4967
head -3.28008 -1.72158 4.36318
rclavicle 2.26863e-014 -9.14409e-015
rhumerus -42.7438 -28.6581 -70.7472
rradius 24.7922
rwrist 36.067
rhand -0.109047 -2.51864
rfingers 7.12502
rthumb 25.4859 -30.8344
lclavicle 2.26863e-014 -9.14409e-015
lhumerus -29.1005 9.46349 85.5851
lradius 25.222
lwrist -15.9105
lhand 0.936676 11.1156
lfingers 7.12502
lthumb 26.4872 39.2844
rfemur -34.9418 -1.04274 17.4633
rtibia 34.4254
rfoot -20.0392 2.68009
rtoes -9.2348
lfemur -6.15443 2.32182 -21.7308
ltibia 14.5628
lfoot -5.63094 -16.8754
ltoes 29.1569
114
root -0.613692 15.8082 49.4332 -169.4 -5.90498 -179.192
lowerback -8.94126 -2.90618 -3.94862
upperback 0.419026 -3.53895 1.18036
thorax 5.77399 -1.88949 2.95798
lowerneck 2.67562 -3.37082 -4.52227
upperneck -10.3258 -3.25854 11.3238
head -3.20313 -1.71885 4.29147
rclavicle 1.11816e-015 1.98785e-015
rhumerus -42.7448 -28.9006 -70.5154
rradius 24.8661
rwrist 36.461
rhand 0.385405 -2.4577
rfingers 7.12502
rthumb 25.9595 -30.7049
lclavicle 1.11816e-015 1.98785e-015
lhumerus -28.285 9.95182 85.5364
lradius 24.5162
lwrist -15.4276
lhand 1.41427 10.5439
lfingers 7.12502
lthumb 26.9443 38.6429
rfemur -35.0113 -0.74825 17.6358
rtibia 34.7052
rfoot -20.5878 2.72995
rtoes -7.86997
lfemur -5.9126 2.21826 -21.5678
ltibia 14.4192
lfoot -5.32411 -16.4252
ltoes 31.1683
115
root -0.585625 15.808 49.3664 -169.355 -6.02922 -179.036
lowerback -8.99086 -2.98289 -3.84126
upperback 0.442143 -3.65508 1.25947
thorax 5.83475 -1.94609 2.96048
lowerneck 2.61462 -3.29329 -4.56438
upperneck -10.2031 -3.161 11.3846
head -3.16225 -1.66842 4.31121
rclavicle -4.17448e-014 9.14409e-015
rhumerus -42.7768 -28.7597 -70.554
rradius 24.9144
rwrist 36.1708
rhand 0.369093 -2.5379
rfingers 7.12502
rthumb 25.9439 -30.7874
lclavicle -4.17448e-014 9.14409e-015
lhumerus -27.9044 10.1741 85.5222
lradius 24.2962
lwrist -15.0774
lhand 1.68325 9.75695
lfingers 7.12502
lthumb 27.2016 37.8159
rfemur -34.9075 -0.558406 17.8915
rtibia 34.9315
rfoot -20.9106 2.3751
rtoes -6.98058
lfemur -5.69255 1.75307 -21.2347
ltibia 14.3299
lfoot -5.46623 -15.9398
ltoes 31.5461
116
root -0.55474 15.8099 49.2933 -169.318 -6.23935 -178.979
lowerback -8.95338 -3.11758 -3.76658
upperback 0.398252 -3.84711 1.28856
thorax 5.78044 -2.03788 2.92333
lowerneck 2.73172 -3.22059 -4.63443
upperneck -10.2171 -3.06042 11.4727
head -3.19123 -1.62376 4.35025
rclavicle 6.13748e-015 4.37326e-015
rhumerus -42.9798 -28.6003 -70.4944
rradius 24.9404
rwrist 36.0948
rhand 0.251292 -2.53612
rfingers 7.12502
rthumb 25.831 -30.8021
lclavicle 6.13748e-015 4.37326e-015
lhumerus -27.9508 9.96792 85.6283
lradius 24.5262
lwrist -15.1431
lhand 1.56634 9.56243
lfingers 7.12502
lthumb 27.0898 37.6389
rfemur -34.7333 -0.350999 18.0245
rtibia 35.1239
rfoot -21.0713 2.0207
rtoes -6.84165
lfemur -5.53584 1.33175 -20.9711
ltibia 14.3586
lfoot -5.89225 -15.7848
ltoes 30.3194
117
root -0.518355 15.8106 49.2147 -169.225 -6.16203 -178.812
lowerback -9.06864 -3.15057 -3.67224
upperback 0.393687 -3.90202 1.35296
thorax 5.84346 -2.06443 2.92406
lowerneck 2.76142 -3.18961 -4.5246
upperneck -10.2675 -3.02401 11.3266
head -3.21964 -1.60694 4.28753
rclavicle 2.33572e-015 3.37934e-015
rhumerus -43.1563 -28.6947 -70.301
rradius 25.0094
rwrist 36.2585
rhand 0.406047 -2.45219
rfingers 7.12502
rthumb 25.9792 -30.6965
lclavicle 2.33572e-015 3.37934e-015
lhumerus -27.8801 9.5642 85.7888
lradius 24.7152
lwrist -15.0602
lhand 1.49439 9.91838
lfingers 7.12502
lthumb 27.0209 38.0055
rfemur -34.6695 0.00171644 18.3098
rtibia 35.3158
rfoot -21.4209 1.89767
rtoes -6.79017
lfemur -5.37199 1.02069 -20.6082
ltibia 14.392
lfoot -7.42088 -15.8413
ltoes 24.2716
